<?xml version="1.0" encoding="UTF-8"?>
<svg id="Layer_2" data-name="Layer 2" xmlns="http://www.w3.org/2000/svg" viewBox="0 0 145.27 64.68">
  <defs>
    <style>
      .cls-1 {
        fill: #1c4584;
      }

      .cls-2 {
        fill: #fff;
      }

      .cls-3 {
        fill: #f26b21;
      }

      .cls-4 {
        fill: #1b4684;
      }
    </style>
  </defs>
  <g id="Layer_1-2" data-name="Layer 1">
    <rect class="cls-2" width="145.27" height="64.68"/>
    <g>
      <rect class="cls-1" x="6.57" y="7.15" width="132.13" height="33.56"/>
      <path class="cls-3" d="M39.17,35.24l10.34-22.75h5.49l10.3,22.75h-6.47l-5.26-11.67c-.24-.52-.45-1.01-.63-1.48-.18-.47-.35-.92-.5-1.35-.15-.43-.3-.87-.44-1.32s-.28-.9-.41-1.38l1.2-.03c-.15.52-.29,1-.42,1.45s-.28.88-.45,1.32c-.17.43-.36.88-.55,1.33s-.4.94-.62,1.46l-5.23,11.67h-6.34Z"/>
      <path class="cls-3" d="M89.76,35.24l-5.73-8.42c.15-.07.29-.13.43-.21,1.28-.66,2.29-1.58,3.02-2.75.74-1.17,1.11-2.51,1.11-4.03s-.35-2.79-1.04-3.88c-.69-1.09-1.68-1.94-2.97-2.55-1.29-.61-2.84-.91-4.66-.91h-11.96v22.75h6.04v-7.64h3.33l5.12,7.64h7.31ZM74,17.65h5.1c.61,0,1.14.1,1.61.29.47.2.83.48,1.11.86.27.38.41.86.41,1.45s-.13,1.05-.39,1.45c-.26.4-.61.71-1.04.94s-.93.34-1.49.34h-5.3v-5.33Z"/>
      <polygon class="cls-3" points="98.58 29.95 98.58 26.22 110.16 26.22 110.16 21.23 98.58 21.23 98.58 17.82 111.45 17.82 111.45 12.54 92.42 12.54 92.42 35.24 111.94 35.24 111.94 29.95 98.58 29.95"/>
      <path class="cls-4" d="M137.06,40.71v15.2H8.18v-15.2h128.88M138.68,39.1H6.56v18.43h132.11v-18.43h0Z"/>
      <g>
        <path class="cls-3" d="M36.5,35.24c-2.28-1.33-4.54-2.65-6.82-3.98,2.28-1.36,4.54-2.7,6.82-4.06v8.04Z"/>
        <path class="cls-3" d="M11.96,35.24v-8.05c2.28,1.36,4.54,2.7,6.83,4.06-2.28,1.33-4.54,2.65-6.83,3.99Z"/>
        <path class="cls-3" d="M36.51,18c0-1.76,0-3.52,0-5.29v-.18c-.08.05-.14.09-.2.13-1.64,1.12-3.28,2.24-4.92,3.35-.87.59-1.74,1.18-2.61,1.78-1.48,1.01-2.96,2.02-4.44,3.03-.07.05-.12.06-.2,0-1.47-1.01-2.94-2.01-4.42-3.01-1.47-1-2.94-2-4.41-3.01-.91-.62-1.82-1.24-2.73-1.86-.2-.14-.41-.28-.63-.43v.72c0,1.58,0,3.17,0,4.75,0,0,0,0,0,0,0,.51,0,1.03,0,1.54,0,.07,0,.13.08.18.94.65,1.88,1.3,2.82,1.94,1.27.87,2.54,1.75,3.81,2.62.68.47,1.36.93,2.05,1.39,1.12.76,2.25,1.51,3.38,2.27.1.07.17.07.28,0,.71-.49,1.43-.98,2.15-1.47,1.16-.79,2.33-1.59,3.49-2.38,2.13-1.45,4.26-2.9,6.39-4.35.08-.06.11-.12.11-.21,0-.51,0-1.03,0-1.54,0,0,0,0,0,0Z"/>
        <path class="cls-3" d="M25.31,29.26c-.37.63-.73,1.25-1.1,1.89-.38-.63-.75-1.26-1.12-1.89h2.22Z"/>
        <path class="cls-3" d="M25.31,32.26c-.37.63-.73,1.25-1.1,1.89-.38-.63-.75-1.26-1.12-1.89h2.22Z"/>
      </g>
      <g>
        <path class="cls-3" d="M127.83,36.27c1.77,0,3.54,0,5.31,0h.18c-.05-.08-.09-.14-.13-.2-1.12-1.65-2.25-3.29-3.37-4.94-.6-.87-1.19-1.75-1.79-2.63-1.01-1.49-2.03-2.98-3.05-4.47-.05-.07-.06-.12,0-.2,1.01-1.48,2.02-2.96,3.02-4.44,1.01-1.48,2.01-2.95,3.02-4.43.62-.91,1.24-1.83,1.86-2.74.14-.2.28-.41.43-.63h-.72c-1.59,0-3.19,0-4.78,0,0,0,0,0,0,0-.52,0-1.03,0-1.55,0-.07,0-.13,0-.18.08-.65.95-1.3,1.89-1.95,2.83-.88,1.28-1.76,2.55-2.63,3.83-.47.68-.93,1.37-1.4,2.06-.76,1.13-1.52,2.26-2.28,3.39-.07.1-.07.17,0,.28.5.72.98,1.44,1.47,2.16.8,1.17,1.59,2.34,2.39,3.51,1.46,2.14,2.92,4.28,4.37,6.42.06.08.12.11.22.11.52,0,1.03,0,1.55,0,0,0,0,0,0,0Z"/>
        <path class="cls-3" d="M116.52,25.01c-.63-.37-1.26-.74-1.9-1.11.63-.38,1.26-.75,1.9-1.13v2.24Z"/>
        <path class="cls-3" d="M113.49,25.01c-.63-.37-1.26-.74-1.9-1.11.63-.38,1.26-.75,1.9-1.13v2.24Z"/>
      </g>
      <g>
        <polygon class="cls-3" points="19.62 45.28 19.62 43.37 14.11 43.37 12.98 43.37 11.99 43.37 11.99 53.26 14.11 53.26 14.11 49.41 19.03 49.41 19.03 47.59 14.11 47.59 14.11 45.28 19.62 45.28"/>
        <path class="cls-3" d="M27.84,53.4c-.83,0-1.59-.13-2.27-.39-.69-.26-1.29-.62-1.8-1.08s-.91-1-1.18-1.62c-.27-.62-.41-1.3-.41-2.02s.14-1.4.42-2.02c.28-.62.67-1.16,1.18-1.62.51-.46,1.11-.82,1.79-1.08.69-.26,1.44-.39,2.26-.39s1.6.13,2.29.38c.69.25,1.29.61,1.79,1.08.51.47.9,1.01,1.17,1.63.27.62.41,1.3.41,2.02s-.14,1.4-.41,2.02c-.27.62-.66,1.17-1.17,1.63-.51.47-1.11.83-1.79,1.08-.69.25-1.45.38-2.27.38ZM27.84,51.39c.52,0,.99-.08,1.41-.24.42-.16.79-.38,1.1-.66.31-.28.55-.61.73-.98.17-.38.26-.79.26-1.23s-.09-.85-.26-1.23c-.17-.38-.42-.7-.73-.98-.31-.28-.68-.5-1.11-.66-.43-.16-.9-.24-1.41-.24s-.98.08-1.41.24-.8.38-1.12.65c-.32.27-.56.6-.73.98s-.25.79-.25,1.24.08.85.25,1.24.41.71.73.98c.32.27.69.49,1.12.65.43.16.9.24,1.41.24Z"/>
        <path class="cls-3" d="M41.32,53.34c-.93,0-1.75-.19-2.46-.57-.71-.38-1.26-.91-1.65-1.58-.4-.67-.59-1.42-.59-2.26v-5.58h2.13v5.5c0,.5.11.94.34,1.33.23.39.53.69.92.91.39.22.82.33,1.31.33s.95-.11,1.35-.33c.4-.22.71-.52.94-.91.23-.39.34-.83.34-1.33v-5.5h2.06v5.58c0,.84-.2,1.59-.59,2.26-.39.67-.94,1.19-1.65,1.58-.71.38-1.53.57-2.45.57Z"/>
        <path class="cls-3" d="M49.81,53.26v-9.89h1.98l6.57,7.39h-.31c-.05-.32-.08-.63-.11-.93-.03-.3-.05-.61-.08-.91-.02-.31-.04-.61-.06-.92-.01-.31-.02-.62-.03-.93,0-.32,0-.65,0-1v-2.7h2.08v9.89h-2.01l-6.68-7.46h.45c.03.31.06.58.09.85.03.26.06.52.08.77.02.25.04.49.06.73.02.24.03.48.04.74,0,.26.01.53.01.81v3.56h-2.08Z"/>
        <path class="cls-3" d="M63.74,53.26v-9.89h4.69c.84,0,1.58.12,2.24.37.65.25,1.21.6,1.67,1.06.46.46.81.98,1.05,1.58.24.6.36,1.24.36,1.93s-.12,1.35-.36,1.95-.59,1.13-1.05,1.58c-.46.45-1.01.8-1.67,1.05-.66.25-1.41.37-2.25.37h-4.69ZM65.86,51.72l-.23-.37h2.73c.54,0,1.01-.08,1.41-.23.4-.16.74-.37,1.01-.65.27-.28.47-.6.59-.97.13-.37.19-.76.19-1.19s-.06-.82-.19-1.18c-.13-.36-.33-.68-.6-.96-.27-.28-.61-.5-1.01-.66-.4-.16-.87-.24-1.41-.24h-2.77l.27-.34v6.78Z"/>
        <path class="cls-3" d="M84.06,53.26h2.2l-4.42-9.89h-2.02l-4.44,9.89h2.13l.89-1.99h4.77l.89,1.99ZM79.16,49.57l.93-2.08c.08-.21.17-.41.25-.61.08-.2.17-.4.25-.61.07-.19.14-.37.2-.55.06.18.12.36.19.54.08.21.16.41.24.62.08.21.16.4.25.57l.94,2.12h-3.25Z"/>
        <path class="cls-3" d="M90.61,53.26v-7.98h-3.45v-1.91h9.08v1.91h-3.52v7.98h-2.12Z"/>
        <path class="cls-3" d="M99.19,53.26v-1.88h2.2v-6.13h-2.2v-1.88h6.53v1.88h-2.2v6.13h2.2v1.88h-6.53Z"/>
        <path class="cls-3" d="M114.42,53.4c-.83,0-1.59-.13-2.27-.39-.69-.26-1.29-.62-1.8-1.08-.51-.46-.91-1-1.18-1.62-.27-.62-.41-1.3-.41-2.02s.14-1.4.42-2.02c.28-.62.67-1.16,1.18-1.62.51-.46,1.11-.82,1.79-1.08.69-.26,1.44-.39,2.26-.39s1.6.13,2.29.38c.69.25,1.29.61,1.79,1.08.51.47.9,1.01,1.17,1.63s.41,1.3.41,2.02-.14,1.4-.41,2.02c-.27.62-.66,1.17-1.17,1.63-.51.47-1.11.83-1.79,1.08s-1.45.38-2.27.38ZM114.42,51.39c.52,0,.99-.08,1.41-.24.42-.16.79-.38,1.1-.66.31-.28.55-.61.73-.98.17-.38.26-.79.26-1.23s-.09-.85-.26-1.23c-.17-.38-.42-.7-.73-.98-.31-.28-.68-.5-1.11-.66s-.9-.24-1.41-.24-.98.08-1.41.24c-.43.16-.8.38-1.12.65-.32.27-.56.6-.73.98-.16.38-.25.79-.25,1.24s.08.85.25,1.24c.16.38.41.71.73.98.32.27.69.49,1.12.65.43.16.9.24,1.41.24Z"/>
        <path class="cls-3" d="M123.29,53.26v-9.89h1.98l6.57,7.39h-.31c-.05-.32-.08-.63-.11-.93-.03-.3-.05-.61-.08-.91-.02-.31-.04-.61-.06-.92-.01-.31-.02-.62-.03-.93,0-.32,0-.65,0-1v-2.7h2.08v9.89h-2.01l-6.68-7.46h.45c.03.31.06.58.09.85.03.26.06.52.08.77.02.25.04.49.06.73.02.24.03.48.04.74,0,.26.01.53.01.81v3.56h-2.08Z"/>
      </g>
    </g>
  </g>
</svg>